<svg xmlns="http://www.w3.org/2000/svg" width="2500" height="2500" viewBox="0 0 2500 2500">
  <path fill="#88ce02" d="M1250 2500c690.36 0 1250-559.64 1250-1250S1940.36 0 1250 0 0 559.64 0 1250s559.64 1250 1250 1250z"/>
  <path fill="#fff" d="M859.38 1380.38c0 102.34 78.12 173.44 192.18 173.44 85.94 0 133.6-32.81 164.07-84.38-5.63 48.28-41.25 80.63-88.13 80.63-54.38 0-89.07-30-89.07-80.62v-230.63c0-93.75 67.5-153.75 166.88-153.75 92.81 0 151.87 50.62 151.87 149.06 0 81.57-41.25 140.63-125.62 161.25 61.88 23.44 105.47 78.75 105.47 146.25 0 96.56-74.06 160.31-189.37 160.31-131.25 0-225-88.12-225-221.25v-30zm321.56-54.37c0-62.81-42.18-103.12-99.37-103.12-58.13 0-98.44 43.12-98.44 103.12v30h197.81v-30zm-197.81 120c0 40.32 24.38 65.63 56.25 65.63s56.25-25.31 56.25-65.63v-35.62h-112.5v35.62zM1380.47 1317.5v-138.28h182.81v-91.41h-182.81v-120.94h198.28v-91.4h-307.5v533.44h312.19v-91.41z"/>
</svg>